<svg width="255" height="220" xmlns="http://www.w3.org/2000/svg" xml:space="preserve" version="1.1">

 <g>
  <title>Layer 1</title>
  <g stroke="null" id="svg_1" transform="translate(128 128) scale(0.72 0.72)">
   <g stroke="null" id="svg_2" transform="translate(-175.05 -175.05) scale(3.89 3.89)">
    <path stroke="black" id="svg_3" stroke-width=" 4px" fill=" none" stroke-linecap="round" d="m27.13068,75.49531c31.82783,0 49.23652,-28.138 49.23652,-52.538c0,-0.799 0,-1.595 -0.05061,-2.387c3.3869,-2.614 6.3099,-5.85 8.63312,-9.558c-3.15823,1.493 -6.50858,2.473 -9.93952,2.905c3.61275,-2.308 6.31646,-5.937 7.60787,-10.213c-3.39721,2.151 -7.11305,3.667 -10.9882,4.482c-6.55356,-7.436 -17.51552,-7.795 -24.48425,-0.802c-4.49462,4.51 -6.4008,11.23 -5.00631,17.643c-13.91214,-0.745 -26.87588,-7.757 -35.66269,-19.293c-4.59302,8.437 -2.24731,19.231 5.35774,24.649c-2.75431,-0.087 -5.44771,-0.88 -7.85434,-2.311c0,0.076 0,0.155 0,0.234c0.00187,8.79 5.80852,16.36 13.88309,18.101c-2.5472,0.741 -5.22092,0.85 -7.81404,0.317c2.26699,7.522 8.76338,12.675 16.16695,12.823c-6.12809,5.139 -13.69753,7.928 -21.49096,7.92c-1.37669,-0.003 -2.7515,-0.092 -4.11882,-0.267c7.91338,5.419 17.12192,8.293 26.52444,8.28"/>
   </g>
  </g>
 </g>
</svg>